#!OML:ASF H:\Terrain\Patient Classification 1\Walking\liu\liu.ASF
:FULLY-SPECIFIED
:DEGREES
53
root 8.73599 15.9638 -28.8706 6.49109 -10.9388 -1.90946
lowerback -6.41294 0.865029 -0.651477
upperback -2.42835 1.13753 2.96688
thorax 1.01784 0.579398 3.50634
lowerneck -21.7121 -4.49454 -12.8711
upperneck 17.3288 -5.28562 14.1806
head 9.82728 -1.75322 6.41658
rclavicle 2.57675e-014 3.65764e-014
rhumerus -45.607 17.3206 -93.9563
rradius 44.3251
rwrist -23.0009
rhand -29.805 -28.1223
rfingers 7.12502
rthumb -3.1291 -58.0791
lclavicle 2.57675e-014 3.65764e-014
lhumerus -43.7876 -2.43703 88.6398
lradius 19.8916
lwrist -6.25794
lhand 3.6577 -16.697
lfingers 7.12502
lthumb 29.0889 11.0514
rfemur 11.4358 2.04246 18.2781
rtibia 31.0054
rfoot 7.34581 -0.805795
rtoes -11.7334
lfemur -36.9652 8.69506 -19.8092
ltibia 38.0583
lfoot -6.41657 6.58196
ltoes -0.721869
54
root 8.76838 15.9971 -28.734 6.60782 -11.1398 -1.90328
lowerback -6.39721 0.772259 -0.63243
upperback -2.49147 1.01381 2.97212
thorax 0.952434 0.51854 3.49131
lowerneck -21.9902 -4.33139 -12.7419
upperneck 17.5529 -5.11154 14.2766
head 9.9292 -1.64329 6.46892
rclavicle -7.60351e-015 -2.06736e-014
rhumerus -44.6835 17.079 -93.9673
rradius 42.5955
rwrist -22.4188
rhand -29.7269 -28.0152
rfingers 7.12502
rthumb -3.05368 -57.9731
lclavicle -7.60351e-015 -2.06736e-014
lhumerus -43.6394 -2.27735 88.3025
lradius 19.896
lwrist -6.37806
lhand 3.32048 -16.7836
lfingers 7.12502
lthumb 28.7668 11.02
rfemur 9.81617 1.65161 18.0344
rtibia 33.8336
rfoot 8.33366 -1.45297
rtoes -12.2689
lfemur -36.4171 8.83938 -20.0065
ltibia 37.8351
lfoot -6.9658 6.57749
ltoes -2.26285
55
root 8.80078 16.0259 -28.5997 6.48951 -11.3426 -1.70002
lowerback -6.10952 0.764287 -0.77238
upperback -2.59306 1.01751 2.86873
thorax 0.687148 0.524604 3.45661
lowerneck -21.8789 -4.23317 -12.4737
upperneck 17.5864 -5.06941 14.233
head 9.90556 -1.61359 6.41265
rclavicle 6.21202e-015 3.02153e-014
rhumerus -44.2434 16.456 -93.8417
rradius 41.1957
rwrist -21.6071
rhand -29.2643 -26.8777
rfingers 7.12502
rthumb -2.60694 -56.8415
lclavicle 6.21202e-015 3.02153e-014
lhumerus -43.5098 -2.19675 87.9375
lradius 19.7504
lwrist -6.77627
lhand 3.01927 -17.4074
lfingers 7.12502
lthumb 28.479 10.4447
rfemur 8.45266 1.40226 17.6778
rtibia 36.5873
rfoot 9.33818 -2.43392
rtoes -11.1516
lfemur -35.6057 8.92197 -20.3517
ltibia 37.5516
lfoot -7.64192 6.59554
ltoes -3.11217
56
root 8.83167 16.0532 -28.4668 6.27396 -11.5249 -1.33756
lowerback -5.77992 0.821251 -1.09503
upperback -2.61805 1.11485 2.77372
thorax 0.467197 0.578159 3.5397
lowerneck -21.861 -4.28271 -12.1792
upperneck 17.5646 -5.14702 13.8554
head 9.88547 -1.67058 6.20552
rclavicle -2.23633e-016 3.10104e-014
rhumerus -43.9898 15.7006 -93.4079
rradius 40.2763
rwrist -20.9512
rhand -28.8974 -26.4547
rfingers 7.12502
rthumb -2.25264 -56.4226
lclavicle -2.23633e-016 3.10104e-014
lhumerus -43.1069 -2.1966 87.7489
lradius 19.4588
lwrist -7.24516
lhand 2.54332 -18.1598
lfingers 7.12502
lthumb 28.0241 9.76761
rfemur 7.18288 1.1653 17.208
rtibia 39.2469
rfoot 10.3026 -3.19035
rtoes -9.23414
lfemur -34.678 8.97842 -20.844
ltibia 37.1683
lfoot -8.04872 6.57624
ltoes -2.9286
57
root 8.86631 16.0851 -28.3247 6.14903 -11.8777 -0.948465
lowerback -5.86091 0.864358 -1.35694
upperback -2.44393 1.18466 2.6859
thorax 0.682954 0.609846 3.60463
lowerneck -22.4967 -4.29688 -11.9942
upperneck 17.9538 -5.10679 13.4845
head 10.1145 -1.65741 6.05963
rclavicle -2.79541e-014 -7.95139e-015
rhumerus -43.5762 15.1985 -92.9292
rradius 39.5828
rwrist -20.4475
rhand -28.2061 -25.3195
rfingers 7.12502
rthumb -1.58497 -55.2934
lclavicle -2.79541e-014 -7.95139e-015
lhumerus -42.358 -2.21195 87.6634
lradius 19.2894
lwrist -7.11634
lhand 2.29656 -18.2969
lfingers 7.12502
lthumb 27.7882 9.66885
rfemur 5.79587 0.923439 16.588
rtibia 41.7713
rfoot 11.252 -3.72273
rtoes -8.19988
lfemur -33.7273 9.10646 -21.4047
ltibia 36.6985
lfoot -8.47106 6.65959
ltoes -2.97527
58
root 8.90258 16.1176 -28.1779 5.89511 -12.2486 -0.507219
lowerback -5.84837 0.877063 -1.62106
upperback -2.28643 1.21537 2.59477
thorax 0.832145 0.622361 3.66307
lowerneck -23.0175 -4.28715 -12.0518
upperneck 18.3703 -5.02907 13.3798
head 10.3442 -1.61992 6.06302
rclavicle 2.0276e-014 1.98785e-014
rhumerus -43.4875 14.9838 -92.5833
rradius 39.1927
rwrist -19.9991
rhand -27.8342 -24.3202
rfingers 7.12502
rthumb -1.22582 -54.2964
lclavicle 2.0276e-014 1.98785e-014
lhumerus -41.8666 -2.50618 87.797
lradius 19.5106
lwrist -6.41237
lhand 2.51656 -17.6557
lfingers 7.12502
lthumb 27.9985 10.2759
rfemur 4.5651 0.734076 15.9086
rtibia 44.167
rfoot 12.1267 -5.06322
rtoes -6.45875
lfemur -32.6092 9.15801 -21.9985
ltibia 36.192
lfoot -8.96615 6.85266
ltoes -2.93552
59
root 8.93465 16.1457 -28.047 5.68134 -12.3949 -0.352402
lowerback -5.57832 0.986275 -1.5707
upperback -2.27379 1.35807 2.54278
thorax 0.686738 0.695395 3.58316
lowerneck -22.7778 -4.41581 -12.4609
upperneck 18.1397 -5.14312 13.6638
head 10.2561 -1.67825 6.21251
rclavicle 3.8763e-015 -3.18055e-015
rhumerus -43.4768 14.6572 -92.2404
rradius 38.8726
rwrist -19.8825
rhand -28.4873 -24.8483
rfingers 7.12502
rthumb -1.85657 -54.82
lclavicle 3.8763e-015 -3.18055e-015
lhumerus -41.6465 -3.34065 88.1746
lradius 19.8471
lwrist -5.82234
lhand 2.59494 -17.3507
lfingers 7.12502
lthumb 28.0734 10.5687
rfemur 3.37571 0.588257 15.7339
rtibia 46.4561
rfoot 12.4716 -7.036
rtoes -4.9321
lfemur -31.594 9.04482 -22.2292
ltibia 35.6778
lfoot -9.30201 6.93321
ltoes -2.60425
60
root 8.96578 16.1737 -27.9329 5.64418 -12.2974 -0.219952
lowerback -5.38726 0.99955 -1.57838
upperback -2.31167 1.37637 2.52402
thorax 0.540353 0.707139 3.56402
lowerneck -22.4052 -4.44525 -12.6298
upperneck 17.737 -5.15082 13.7452
head 10.0537 -1.69743 6.25218
rclavicle 4.95968e-014 1.74931e-014
rhumerus -43.4188 14.2411 -91.8714
rradius 38.6269
rwrist -19.8858
rhand -29.2538 -25.3217
rfingers 7.12502
rthumb -2.59686 -55.2856
lclavicle 4.95968e-014 1.74931e-014
lhumerus -41.3907 -4.11787 88.5345
lradius 20.1422
lwrist -5.22103
lhand 2.65775 -17.3729
lfingers 7.12502
lthumb 28.1335 10.5365
rfemur 1.99595 0.280013 15.6907
rtibia 48.6458
rfoot 12.1704 -8.26054
rtoes -4.58658
lfemur -30.8592 8.78135 -22.482
ltibia 35.1623
lfoot -9.5192 7.00315
ltoes -2.84837
61
root 8.99671 16.1987 -27.8141 5.59524 -12.0916 0.0919218
lowerback -5.18314 0.752856 -1.94848
upperback -2.41202 1.06516 2.55066
thorax 0.33817 0.558285 3.77898
lowerneck -22.3305 -4.23861 -12.1604
upperneck 17.6861 -4.91827 13.3076
head 9.9594 -1.60769 6.03938
rclavicle 1.99033e-014 -1.90833e-014
rhumerus -43.5296 14.113 -91.6948
rradius 38.3921
rwrist -19.6042
rhand -29.5309 -25.7039
rfingers 7.12502
rthumb -2.86444 -55.6644
lclavicle 1.99033e-014 -1.90833e-014
lhumerus -41.2038 -4.26044 88.5923
lradius 20.4097
lwrist -4.47857
lhand 3.24235 -17.1545
lfingers 7.12502
lthumb 28.6921 10.6618
rfemur 0.625671 -0.148941 15.4574
rtibia 50.7385
rfoot 11.4245 -8.95252
rtoes -2.9476
lfemur -30.1378 8.40661 -22.9468
ltibia 34.662
lfoot -9.71762 7.11079
ltoes -3.48052
